<svg width="32" height="32" xmlns="http://www.w3.org/2000/svg">

 <metadata id="metadata4">image/svg+xml</metadata>
 <g>
  <title>background</title>
  <rect fill="none" id="canvas_background" height="402" width="582" y="-1" x="-1"/>
 </g>
 <g>
  <title>Layer 1</title>
  <rect rx="3" id="svg_1" height="30.332789" width="28.666152" y="0.946101" x="1.666924" stroke-width="1.5" fill="#6ed889"/>
  <g stroke-linejoin="round" stroke-linecap="round" stroke-width="0.125" fill="none" id="layer1">
   <path fill="#ba2828" fill-rule="nonzero" stroke-width="0.125" stroke-linecap="round" stroke-linejoin="round" stroke-miterlimit="4" stroke-dashoffset="0" id="rect3229" d="m12.753726,2.117154c0.04474,-0.00337 0.08011,0.00283 0.125,0c0.00566,-0.00036 0.02589,0.00014 0.03125,0c0.02059,0.00009 0.04188,-0.00023 0.0625,0c0.00537,-0.00008 0.02558,0.00029 0.03125,0c0.1874,-0.00951 0.37275,0 0.5625,0c6.072,0 11,4.928 11,11c0,2.29281 -0.70467,4.42466 -1.90625,6.1875l6.625,6.5c0.00273,0.00337 0.02849,0.02731 0.03125,0.03125c0.00813,0.01336 0.02423,0.05143 0.03125,0.0625c0.00984,0.0158 0.023,0.04544 0.03125,0.0625c0.22777,0.53884 -0.26534,1.65329 -1.21875,2.625c-0.95341,0.97171 -2.05137,1.46915 -2.59375,1.25c-0.01719,-0.00796 -0.04652,-0.02171 -0.0625,-0.03125c-0.01226,-0.00832 -0.04478,-0.02031 -0.0625,-0.03125c-0.00393,-0.00277 -0.02786,-0.02854 -0.03125,-0.03125l-6.9375,-6.8125c-1.48149,0.74331 -3.13683,1.1875 -4.90625,1.1875c-6.072,0 -11,-4.928 -11,-11c0,-5.7907 4.50537,-10.57174 10.1875,-11zm0.0625,3.5c-3.78688,0.37941 -6.75,3.61447 -6.75,7.5c0,4.14 3.36,7.5 7.5,7.5c4.14,0 7.5,-3.36 7.5,-7.5c0,-4.14 -3.36,-7.5 -7.5,-7.5c-0.16172,0 -0.30956,-0.0101 -0.46875,0c-0.00765,0.00049 -0.02348,-0.00013 -0.03125,0c-0.03139,-0.00047 -0.0937,0.0001 -0.125,0c-0.00773,0.00027 -0.02365,-0.00067 -0.03125,0c-0.02992,0.00263 -0.06393,-0.00299 -0.09375,0z"/>
  </g>
 </g>
</svg>